<?xml version="1.0" encoding="UTF-8"?>
<svg xmlns="http://www.w3.org/2000/svg" xmlns:xlink="http://www.w3.org/1999/xlink" width="438.6" height="228.277154" viewBox="0 0 438.6 228.277154">
<defs>
<g>
<g id="glyph-0-0">
<path d="M 1.28125 0 L 1.28125 -0.46875 L 2.40625 -0.46875 L 2.40625 -5.90625 L 1.09375 -5.046875 L 1.09375 -5.625 L 2.6875 -6.65625 L 3.296875 -6.65625 L 3.296875 -0.46875 L 4.4375 -0.46875 L 4.4375 0 Z M 1.28125 0 "/>
</g>
<g id="glyph-0-1">
<path d="M 2.21875 -0.46875 L 3.53125 -0.46875 C 4.050781 -0.46875 4.429688 -0.578125 4.671875 -0.796875 C 4.921875 -1.023438 5.046875 -1.390625 5.046875 -1.890625 C 5.046875 -2.378906 4.921875 -2.738281 4.671875 -2.96875 C 4.429688 -3.195312 4.050781 -3.3125 3.53125 -3.3125 L 2.21875 -3.3125 Z M 2.21875 -3.78125 L 3.328125 -3.78125 C 3.804688 -3.78125 4.15625 -3.867188 4.375 -4.046875 C 4.59375 -4.234375 4.703125 -4.523438 4.703125 -4.921875 C 4.703125 -5.316406 4.59375 -5.601562 4.375 -5.78125 C 4.15625 -5.96875 3.804688 -6.0625 3.328125 -6.0625 L 2.21875 -6.0625 Z M 0.5 0 L 0.5 -0.46875 L 1.328125 -0.46875 L 1.328125 -6.0625 L 0.5 -6.0625 L 0.5 -6.53125 L 3.71875 -6.53125 C 4.382812 -6.53125 4.882812 -6.394531 5.21875 -6.125 C 5.550781 -5.863281 5.71875 -5.460938 5.71875 -4.921875 C 5.71875 -4.535156 5.597656 -4.222656 5.359375 -3.984375 C 5.128906 -3.753906 4.789062 -3.613281 4.34375 -3.5625 C 4.90625 -3.5 5.328125 -3.320312 5.609375 -3.03125 C 5.898438 -2.75 6.046875 -2.367188 6.046875 -1.890625 C 6.046875 -1.242188 5.835938 -0.765625 5.421875 -0.453125 C 5.015625 -0.148438 4.378906 0 3.515625 0 Z M 0.5 0 "/>
</g>
<g id="glyph-0-2">
<path d="M 0.875 -6.265625 C 1.21875 -6.390625 1.546875 -6.484375 1.859375 -6.546875 C 2.171875 -6.617188 2.460938 -6.65625 2.734375 -6.65625 C 3.378906 -6.65625 3.878906 -6.515625 4.234375 -6.234375 C 4.585938 -5.960938 4.765625 -5.582031 4.765625 -5.09375 C 4.765625 -4.695312 4.640625 -4.363281 4.390625 -4.09375 C 4.148438 -3.832031 3.800781 -3.65625 3.34375 -3.5625 C 3.882812 -3.488281 4.300781 -3.296875 4.59375 -2.984375 C 4.894531 -2.671875 5.046875 -2.265625 5.046875 -1.765625 C 5.046875 -1.148438 4.835938 -0.679688 4.421875 -0.359375 C 4.015625 -0.0351562 3.425781 0.125 2.65625 0.125 C 2.3125 0.125 1.976562 0.0859375 1.65625 0.015625 C 1.332031 -0.0546875 1.007812 -0.164062 0.6875 -0.3125 L 0.6875 -1.578125 L 1.171875 -1.578125 C 1.203125 -1.160156 1.34375 -0.84375 1.59375 -0.625 C 1.851562 -0.414062 2.210938 -0.3125 2.671875 -0.3125 C 3.117188 -0.3125 3.46875 -0.4375 3.71875 -0.6875 C 3.976562 -0.945312 4.109375 -1.300781 4.109375 -1.75 C 4.109375 -2.269531 3.972656 -2.660156 3.703125 -2.921875 C 3.441406 -3.179688 3.054688 -3.3125 2.546875 -3.3125 L 2.125 -3.3125 L 2.125 -3.765625 L 2.359375 -3.765625 C 2.867188 -3.765625 3.25 -3.867188 3.5 -4.078125 C 3.757812 -4.296875 3.890625 -4.617188 3.890625 -5.046875 C 3.890625 -5.421875 3.78125 -5.707031 3.5625 -5.90625 C 3.351562 -6.113281 3.050781 -6.21875 2.65625 -6.21875 C 2.269531 -6.21875 1.96875 -6.125 1.75 -5.9375 C 1.53125 -5.75 1.398438 -5.472656 1.359375 -5.109375 L 0.875 -5.109375 Z M 0.875 -6.265625 "/>
</g>
<g id="glyph-0-3">
<path d="M 4.171875 -1.78125 C 4.171875 -2.25 4.054688 -2.613281 3.828125 -2.875 C 3.597656 -3.132812 3.269531 -3.265625 2.84375 -3.265625 C 2.425781 -3.265625 2.101562 -3.132812 1.875 -2.875 C 1.644531 -2.613281 1.53125 -2.25 1.53125 -1.78125 C 1.53125 -1.3125 1.644531 -0.945312 1.875 -0.6875 C 2.101562 -0.4375 2.425781 -0.3125 2.84375 -0.3125 C 3.269531 -0.3125 3.597656 -0.4375 3.828125 -0.6875 C 4.054688 -0.945312 4.171875 -1.3125 4.171875 -1.78125 Z M 4 -4.96875 C 4 -5.363281 3.894531 -5.671875 3.6875 -5.890625 C 3.488281 -6.109375 3.207031 -6.21875 2.84375 -6.21875 C 2.488281 -6.21875 2.207031 -6.109375 2 -5.890625 C 1.800781 -5.671875 1.703125 -5.363281 1.703125 -4.96875 C 1.703125 -4.5625 1.800781 -4.25 2 -4.03125 C 2.207031 -3.8125 2.488281 -3.703125 2.84375 -3.703125 C 3.207031 -3.703125 3.488281 -3.8125 3.6875 -4.03125 C 3.894531 -4.25 4 -4.5625 4 -4.96875 Z M 3.53125 -3.484375 C 4.019531 -3.410156 4.40625 -3.222656 4.6875 -2.921875 C 4.96875 -2.628906 5.109375 -2.25 5.109375 -1.78125 C 5.109375 -1.164062 4.910156 -0.691406 4.515625 -0.359375 C 4.128906 -0.0351562 3.570312 0.125 2.84375 0.125 C 2.125 0.125 1.566406 -0.0351562 1.171875 -0.359375 C 0.785156 -0.691406 0.59375 -1.164062 0.59375 -1.78125 C 0.59375 -2.25 0.734375 -2.628906 1.015625 -2.921875 C 1.296875 -3.222656 1.6875 -3.410156 2.1875 -3.484375 C 1.738281 -3.554688 1.394531 -3.71875 1.15625 -3.96875 C 0.925781 -4.226562 0.8125 -4.5625 0.8125 -4.96875 C 0.8125 -5.488281 0.992188 -5.898438 1.359375 -6.203125 C 1.722656 -6.503906 2.21875 -6.65625 2.84375 -6.65625 C 3.476562 -6.65625 3.976562 -6.503906 4.34375 -6.203125 C 4.707031 -5.898438 4.890625 -5.488281 4.890625 -4.96875 C 4.890625 -4.5625 4.769531 -4.226562 4.53125 -3.96875 C 4.300781 -3.71875 3.96875 -3.554688 3.53125 -3.484375 Z M 3.53125 -3.484375 "/>
</g>
<g id="glyph-0-4">
<path d="M 2.84375 -0.3125 C 3.289062 -0.3125 3.625 -0.554688 3.84375 -1.046875 C 4.070312 -1.535156 4.1875 -2.273438 4.1875 -3.265625 C 4.1875 -4.253906 4.070312 -4.992188 3.84375 -5.484375 C 3.625 -5.972656 3.289062 -6.21875 2.84375 -6.21875 C 2.40625 -6.21875 2.070312 -5.972656 1.84375 -5.484375 C 1.625 -4.992188 1.515625 -4.253906 1.515625 -3.265625 C 1.515625 -2.273438 1.625 -1.535156 1.84375 -1.046875 C 2.070312 -0.554688 2.40625 -0.3125 2.84375 -0.3125 Z M 2.84375 0.125 C 2.132812 0.125 1.582031 -0.171875 1.1875 -0.765625 C 0.789062 -1.359375 0.59375 -2.191406 0.59375 -3.265625 C 0.59375 -4.335938 0.789062 -5.171875 1.1875 -5.765625 C 1.582031 -6.359375 2.132812 -6.65625 2.84375 -6.65625 C 3.5625 -6.65625 4.117188 -6.359375 4.515625 -5.765625 C 4.910156 -5.171875 5.109375 -4.335938 5.109375 -3.265625 C 5.109375 -2.191406 4.910156 -1.359375 4.515625 -0.765625 C 4.117188 -0.171875 3.5625 0.125 2.84375 0.125 Z M 2.84375 0.125 "/>
</g>
<g id="glyph-0-5">
<path d="M 4.515625 -6.53125 L 4.515625 -5.8125 L 1.515625 -5.8125 L 1.515625 -3.953125 C 1.671875 -4.054688 1.847656 -4.132812 2.046875 -4.1875 C 2.253906 -4.238281 2.484375 -4.265625 2.734375 -4.265625 C 3.429688 -4.265625 3.984375 -4.066406 4.390625 -3.671875 C 4.804688 -3.285156 5.015625 -2.753906 5.015625 -2.078125 C 5.015625 -1.378906 4.804688 -0.835938 4.390625 -0.453125 C 3.984375 -0.0664062 3.40625 0.125 2.65625 0.125 C 2.351562 0.125 2.039062 0.0859375 1.71875 0.015625 C 1.40625 -0.0546875 1.085938 -0.164062 0.765625 -0.3125 L 0.765625 -1.578125 L 1.25 -1.578125 C 1.28125 -1.171875 1.414062 -0.859375 1.65625 -0.640625 C 1.894531 -0.421875 2.226562 -0.3125 2.65625 -0.3125 C 3.113281 -0.3125 3.46875 -0.460938 3.71875 -0.765625 C 3.96875 -1.066406 4.09375 -1.503906 4.09375 -2.078125 C 4.09375 -2.640625 3.96875 -3.070312 3.71875 -3.375 C 3.46875 -3.675781 3.113281 -3.828125 2.65625 -3.828125 C 2.394531 -3.828125 2.160156 -3.78125 1.953125 -3.6875 C 1.753906 -3.59375 1.578125 -3.445312 1.421875 -3.25 L 1.046875 -3.25 L 1.046875 -6.53125 Z M 4.515625 -6.53125 "/>
</g>
<g id="glyph-0-6">
<path d="M 1.140625 -4.984375 L 0.65625 -4.984375 L 0.65625 -6.140625 C 0.96875 -6.304688 1.28125 -6.429688 1.59375 -6.515625 C 1.914062 -6.609375 2.226562 -6.65625 2.53125 -6.65625 C 3.207031 -6.65625 3.742188 -6.488281 4.140625 -6.15625 C 4.535156 -5.832031 4.734375 -5.382812 4.734375 -4.8125 C 4.734375 -4.175781 4.285156 -3.410156 3.390625 -2.515625 C 3.316406 -2.453125 3.265625 -2.40625 3.234375 -2.375 L 1.578125 -0.71875 L 4.3125 -0.71875 L 4.3125 -1.53125 L 4.828125 -1.53125 L 4.828125 0 L 0.609375 0 L 0.609375 -0.484375 L 2.59375 -2.453125 C 3.03125 -2.890625 3.34375 -3.289062 3.53125 -3.65625 C 3.71875 -4.03125 3.8125 -4.414062 3.8125 -4.8125 C 3.8125 -5.257812 3.695312 -5.601562 3.46875 -5.84375 C 3.238281 -6.09375 2.921875 -6.21875 2.515625 -6.21875 C 2.097656 -6.21875 1.773438 -6.113281 1.546875 -5.90625 C 1.316406 -5.695312 1.179688 -5.390625 1.140625 -4.984375 Z M 1.140625 -4.984375 "/>
</g>
<g id="glyph-0-7">
<path d="M 2.21875 -0.46875 L 3.03125 -0.46875 C 3.882812 -0.46875 4.535156 -0.707031 4.984375 -1.1875 C 5.441406 -1.675781 5.671875 -2.375 5.671875 -3.28125 C 5.671875 -4.1875 5.441406 -4.875 4.984375 -5.34375 C 4.535156 -5.820312 3.882812 -6.0625 3.03125 -6.0625 L 2.21875 -6.0625 Z M 0.5 0 L 0.5 -0.46875 L 1.328125 -0.46875 L 1.328125 -6.0625 L 0.5 -6.0625 L 0.5 -6.53125 L 3.09375 -6.53125 C 4.21875 -6.53125 5.09375 -6.242188 5.71875 -5.671875 C 6.351562 -5.097656 6.671875 -4.300781 6.671875 -3.28125 C 6.671875 -2.25 6.351562 -1.441406 5.71875 -0.859375 C 5.09375 -0.285156 4.21875 0 3.09375 0 Z M 0.5 0 "/>
</g>
<g id="glyph-0-8">
<path d="M 0.875 -6.09375 C 0.875 -6.226562 0.921875 -6.34375 1.015625 -6.4375 C 1.117188 -6.539062 1.238281 -6.59375 1.375 -6.59375 C 1.507812 -6.59375 1.625 -6.539062 1.71875 -6.4375 C 1.8125 -6.34375 1.859375 -6.226562 1.859375 -6.09375 C 1.859375 -5.957031 1.8125 -5.84375 1.71875 -5.75 C 1.625 -5.65625 1.507812 -5.609375 1.375 -5.609375 C 1.238281 -5.609375 1.117188 -5.65625 1.015625 -5.75 C 0.921875 -5.84375 0.875 -5.957031 0.875 -6.09375 Z M 1.90625 -0.46875 L 2.65625 -0.46875 L 2.65625 0 L 0.328125 0 L 0.328125 -0.46875 L 1.09375 -0.46875 L 1.09375 -4.1875 L 0.328125 -4.1875 L 0.328125 -4.65625 L 1.90625 -4.65625 Z M 1.90625 -0.46875 "/>
</g>
<g id="glyph-0-9">
<path d="M 4.28125 -4.65625 L 4.28125 -3.5 L 3.828125 -3.5 C 3.804688 -3.726562 3.738281 -3.898438 3.625 -4.015625 C 3.507812 -4.128906 3.34375 -4.1875 3.125 -4.1875 C 2.726562 -4.1875 2.425781 -4.046875 2.21875 -3.765625 C 2.007812 -3.492188 1.90625 -3.101562 1.90625 -2.59375 L 1.90625 -0.46875 L 2.828125 -0.46875 L 2.828125 0 L 0.375 0 L 0.375 -0.46875 L 1.09375 -0.46875 L 1.09375 -4.203125 L 0.328125 -4.203125 L 0.328125 -4.65625 L 1.90625 -4.65625 L 1.90625 -3.828125 C 2.0625 -4.148438 2.257812 -4.390625 2.5 -4.546875 C 2.75 -4.703125 3.054688 -4.78125 3.421875 -4.78125 C 3.546875 -4.78125 3.679688 -4.769531 3.828125 -4.75 C 3.972656 -4.726562 4.125 -4.695312 4.28125 -4.65625 Z M 4.28125 -4.65625 "/>
</g>
<g id="glyph-0-10">
<path d="M 4.859375 -2.25 L 1.390625 -2.25 L 1.390625 -2.203125 C 1.390625 -1.578125 1.503906 -1.101562 1.734375 -0.78125 C 1.972656 -0.46875 2.328125 -0.3125 2.796875 -0.3125 C 3.140625 -0.3125 3.425781 -0.398438 3.65625 -0.578125 C 3.882812 -0.765625 4.046875 -1.039062 4.140625 -1.40625 L 4.78125 -1.40625 C 4.65625 -0.894531 4.414062 -0.507812 4.0625 -0.25 C 3.71875 0 3.265625 0.125 2.703125 0.125 C 2.023438 0.125 1.476562 -0.0976562 1.0625 -0.546875 C 0.65625 -0.992188 0.453125 -1.585938 0.453125 -2.328125 C 0.453125 -3.066406 0.65625 -3.660156 1.0625 -4.109375 C 1.46875 -4.554688 2 -4.78125 2.65625 -4.78125 C 3.351562 -4.78125 3.890625 -4.5625 4.265625 -4.125 C 4.648438 -3.695312 4.847656 -3.070312 4.859375 -2.25 Z M 3.90625 -2.703125 C 3.894531 -3.242188 3.78125 -3.648438 3.5625 -3.921875 C 3.351562 -4.203125 3.050781 -4.34375 2.65625 -4.34375 C 2.28125 -4.34375 1.984375 -4.203125 1.765625 -3.921875 C 1.554688 -3.648438 1.429688 -3.242188 1.390625 -2.703125 Z M 3.90625 -2.703125 "/>
</g>
<g id="glyph-0-11">
<path d="M 4.609375 -1.390625 C 4.492188 -0.898438 4.273438 -0.523438 3.953125 -0.265625 C 3.628906 -0.00390625 3.210938 0.125 2.703125 0.125 C 2.023438 0.125 1.476562 -0.0976562 1.0625 -0.546875 C 0.65625 -0.992188 0.453125 -1.585938 0.453125 -2.328125 C 0.453125 -3.078125 0.65625 -3.671875 1.0625 -4.109375 C 1.476562 -4.554688 2.023438 -4.78125 2.703125 -4.78125 C 2.992188 -4.78125 3.285156 -4.742188 3.578125 -4.671875 C 3.867188 -4.609375 4.160156 -4.503906 4.453125 -4.359375 L 4.453125 -3.171875 L 3.984375 -3.171875 C 3.921875 -3.578125 3.785156 -3.875 3.578125 -4.0625 C 3.378906 -4.25 3.085938 -4.34375 2.703125 -4.34375 C 2.265625 -4.34375 1.9375 -4.175781 1.71875 -3.84375 C 1.5 -3.507812 1.390625 -3.003906 1.390625 -2.328125 C 1.390625 -1.660156 1.5 -1.15625 1.71875 -0.8125 C 1.9375 -0.476562 2.265625 -0.3125 2.703125 -0.3125 C 3.054688 -0.3125 3.332031 -0.398438 3.53125 -0.578125 C 3.738281 -0.753906 3.882812 -1.023438 3.96875 -1.390625 Z M 4.609375 -1.390625 "/>
</g>
<g id="glyph-0-12">
<path d="M 0.96875 -4.1875 L 0.265625 -4.1875 L 0.265625 -4.65625 L 0.96875 -4.65625 L 0.96875 -6.09375 L 1.78125 -6.09375 L 1.78125 -4.65625 L 3.296875 -4.65625 L 3.296875 -4.1875 L 1.78125 -4.1875 L 1.78125 -1.234375 C 1.78125 -0.835938 1.816406 -0.582031 1.890625 -0.46875 C 1.960938 -0.363281 2.101562 -0.3125 2.3125 -0.3125 C 2.519531 -0.3125 2.671875 -0.367188 2.765625 -0.484375 C 2.867188 -0.609375 2.921875 -0.8125 2.921875 -1.09375 L 3.53125 -1.09375 C 3.507812 -0.664062 3.394531 -0.351562 3.1875 -0.15625 C 2.976562 0.03125 2.664062 0.125 2.25 0.125 C 1.78125 0.125 1.445312 0.0234375 1.25 -0.171875 C 1.0625 -0.378906 0.96875 -0.734375 0.96875 -1.234375 Z M 0.96875 -4.1875 "/>
</g>
<g id="glyph-0-13">
</g>
<g id="glyph-0-14">
<path d="M 2.21875 0 L 0.5 -4.1875 L -0.03125 -4.1875 L -0.03125 -4.65625 L 2.109375 -4.65625 L 2.109375 -4.1875 L 1.375 -4.1875 L 2.6875 -0.984375 L 3.984375 -4.1875 L 3.296875 -4.1875 L 3.296875 -4.65625 L 5.046875 -4.65625 L 5.046875 -4.1875 L 4.515625 -4.1875 L 2.8125 0 Z M 2.21875 0 "/>
</g>
<g id="glyph-0-15">
<path d="M 6.84375 0 L 6.125 0 L 4.625 -5.3125 L 3.125 0 L 2.40625 0 L 0.6875 -6.0625 L 0.046875 -6.0625 L 0.046875 -6.53125 L 2.4375 -6.53125 L 2.4375 -6.0625 L 1.609375 -6.0625 L 2.984375 -1.234375 L 4.46875 -6.53125 L 5.171875 -6.53125 L 6.6875 -1.1875 L 8.0625 -6.0625 L 7.3125 -6.0625 L 7.3125 -6.53125 L 9.1875 -6.53125 L 9.1875 -6.0625 L 8.546875 -6.0625 Z M 6.84375 0 "/>
</g>
<g id="glyph-0-16">
<path d="M 3.5625 -1.46875 L 3.5625 -2.453125 L 2.53125 -2.453125 C 2.132812 -2.453125 1.835938 -2.363281 1.640625 -2.1875 C 1.441406 -2.019531 1.34375 -1.753906 1.34375 -1.390625 C 1.34375 -1.066406 1.441406 -0.8125 1.640625 -0.625 C 1.835938 -0.4375 2.109375 -0.34375 2.453125 -0.34375 C 2.785156 -0.34375 3.050781 -0.445312 3.25 -0.65625 C 3.457031 -0.863281 3.5625 -1.132812 3.5625 -1.46875 Z M 4.375 -2.90625 L 4.375 -0.46875 L 5.09375 -0.46875 L 5.09375 0 L 3.5625 0 L 3.5625 -0.5 C 3.382812 -0.28125 3.175781 -0.117188 2.9375 -0.015625 C 2.707031 0.078125 2.4375 0.125 2.125 0.125 C 1.613281 0.125 1.207031 -0.0078125 0.90625 -0.28125 C 0.601562 -0.5625 0.453125 -0.929688 0.453125 -1.390625 C 0.453125 -1.878906 0.625 -2.253906 0.96875 -2.515625 C 1.3125 -2.785156 1.800781 -2.921875 2.4375 -2.921875 L 3.5625 -2.921875 L 3.5625 -3.234375 C 3.5625 -3.585938 3.453125 -3.859375 3.234375 -4.046875 C 3.023438 -4.242188 2.726562 -4.34375 2.34375 -4.34375 C 2.019531 -4.34375 1.765625 -4.269531 1.578125 -4.125 C 1.390625 -3.976562 1.269531 -3.765625 1.21875 -3.484375 L 0.8125 -3.484375 L 0.8125 -4.421875 C 1.082031 -4.546875 1.347656 -4.632812 1.609375 -4.6875 C 1.878906 -4.75 2.140625 -4.78125 2.390625 -4.78125 C 3.035156 -4.78125 3.523438 -4.617188 3.859375 -4.296875 C 4.203125 -3.984375 4.375 -3.519531 4.375 -2.90625 Z M 4.375 -2.90625 "/>
</g>
<g id="glyph-0-17">
<path d="M 2.5625 0 L 0.3125 0 L 0.3125 -0.46875 L 1.03125 -0.46875 L 1.03125 -6.34375 L 0.265625 -6.34375 L 0.265625 -6.8125 L 1.84375 -6.8125 L 1.84375 -2.375 L 3.796875 -4.1875 L 3.125 -4.1875 L 3.125 -4.65625 L 5.234375 -4.65625 L 5.234375 -4.1875 L 4.4375 -4.1875 L 3.0625 -2.90625 L 4.828125 -0.46875 L 5.5 -0.46875 L 5.5 0 L 3.203125 0 L 3.203125 -0.46875 L 3.859375 -0.46875 L 2.46875 -2.375 L 1.84375 -1.78125 L 1.84375 -0.46875 L 2.5625 -0.46875 Z M 2.5625 0 "/>
</g>
<g id="glyph-0-18">
<path d="M 0.390625 -2.75 L 2.640625 -2.75 L 2.640625 -2.0625 L 0.390625 -2.0625 Z M 0.390625 -2.75 "/>
</g>
<g id="glyph-0-19">
<path d="M 3.171875 -4.65625 L 4.6875 -4.65625 L 4.6875 -0.46875 L 5.4375 -0.46875 L 5.4375 0 L 3.875 0 L 3.875 -0.828125 C 3.726562 -0.515625 3.535156 -0.273438 3.296875 -0.109375 C 3.054688 0.046875 2.78125 0.125 2.46875 0.125 C 1.957031 0.125 1.578125 -0.0195312 1.328125 -0.3125 C 1.085938 -0.601562 0.96875 -1.0625 0.96875 -1.6875 L 0.96875 -4.1875 L 0.234375 -4.1875 L 0.234375 -4.65625 L 1.78125 -4.65625 L 1.78125 -1.9375 C 1.78125 -1.375 1.847656 -0.988281 1.984375 -0.78125 C 2.117188 -0.570312 2.367188 -0.46875 2.734375 -0.46875 C 3.097656 -0.46875 3.378906 -0.601562 3.578125 -0.875 C 3.773438 -1.144531 3.875 -1.546875 3.875 -2.078125 L 3.875 -4.1875 L 3.171875 -4.1875 Z M 3.171875 -4.65625 "/>
</g>
<g id="glyph-0-20">
<path d="M 1.84375 -2.5625 L 1.84375 -2.09375 C 1.84375 -1.53125 1.945312 -1.101562 2.15625 -0.8125 C 2.375 -0.519531 2.6875 -0.375 3.09375 -0.375 C 3.507812 -0.375 3.820312 -0.535156 4.03125 -0.859375 C 4.238281 -1.191406 4.34375 -1.679688 4.34375 -2.328125 C 4.34375 -2.972656 4.238281 -3.457031 4.03125 -3.78125 C 3.820312 -4.113281 3.507812 -4.28125 3.09375 -4.28125 C 2.6875 -4.28125 2.375 -4.128906 2.15625 -3.828125 C 1.945312 -3.535156 1.84375 -3.113281 1.84375 -2.5625 Z M 1.03125 -4.1875 L 0.265625 -4.1875 L 0.265625 -4.65625 L 1.84375 -4.65625 L 1.84375 -3.921875 C 2 -4.210938 2.195312 -4.425781 2.4375 -4.5625 C 2.6875 -4.707031 2.988281 -4.78125 3.34375 -4.78125 C 3.914062 -4.78125 4.382812 -4.550781 4.75 -4.09375 C 5.113281 -3.644531 5.296875 -3.054688 5.296875 -2.328125 C 5.296875 -1.597656 5.113281 -1.003906 4.75 -0.546875 C 4.382812 -0.0976562 3.914062 0.125 3.34375 0.125 C 2.988281 0.125 2.6875 0.0546875 2.4375 -0.078125 C 2.195312 -0.210938 2 -0.429688 1.84375 -0.734375 L 1.84375 1.390625 L 2.59375 1.390625 L 2.59375 1.859375 L 0.265625 1.859375 L 0.265625 1.390625 L 1.03125 1.390625 Z M 1.03125 -4.1875 "/>
</g>
<g id="glyph-0-21">
<path d="M 4.109375 -5.625 L 4.109375 -3.171875 L 6.5625 -3.171875 L 6.5625 -2.453125 L 4.109375 -2.453125 L 4.109375 0 L 3.40625 0 L 3.40625 -2.453125 L 0.953125 -2.453125 L 0.953125 -3.171875 L 3.40625 -3.171875 L 3.40625 -5.625 Z M 4.109375 -5.625 "/>
</g>
<g id="glyph-0-22">
<path d="M 0.5 0 L 0.5 -0.46875 L 1.328125 -0.46875 L 1.328125 -6.0625 L 0.5 -6.0625 L 0.5 -6.53125 L 3.046875 -6.53125 L 3.046875 -6.0625 L 2.21875 -6.0625 L 2.21875 -0.53125 L 5.203125 -0.53125 L 5.203125 -1.640625 L 5.734375 -1.640625 L 5.734375 0 Z M 0.5 0 "/>
</g>
<g id="glyph-0-23">
<path d="M 0.5 -0.265625 L 0.5 -1.34375 L 0.96875 -1.34375 C 0.976562 -1 1.085938 -0.738281 1.296875 -0.5625 C 1.503906 -0.394531 1.804688 -0.3125 2.203125 -0.3125 C 2.566406 -0.3125 2.84375 -0.378906 3.03125 -0.515625 C 3.21875 -0.648438 3.3125 -0.847656 3.3125 -1.109375 C 3.3125 -1.304688 3.242188 -1.46875 3.109375 -1.59375 C 2.972656 -1.71875 2.679688 -1.851562 2.234375 -2 L 1.65625 -2.203125 C 1.25 -2.328125 0.957031 -2.484375 0.78125 -2.671875 C 0.601562 -2.867188 0.515625 -3.117188 0.515625 -3.421875 C 0.515625 -3.847656 0.671875 -4.179688 0.984375 -4.421875 C 1.296875 -4.660156 1.726562 -4.78125 2.28125 -4.78125 C 2.519531 -4.78125 2.773438 -4.75 3.046875 -4.6875 C 3.316406 -4.625 3.597656 -4.53125 3.890625 -4.40625 L 3.890625 -3.390625 L 3.421875 -3.390625 C 3.410156 -3.691406 3.304688 -3.925781 3.109375 -4.09375 C 2.910156 -4.257812 2.640625 -4.34375 2.296875 -4.34375 C 1.960938 -4.34375 1.707031 -4.28125 1.53125 -4.15625 C 1.363281 -4.039062 1.28125 -3.863281 1.28125 -3.625 C 1.28125 -3.4375 1.34375 -3.28125 1.46875 -3.15625 C 1.601562 -3.039062 1.867188 -2.921875 2.265625 -2.796875 L 2.90625 -2.59375 C 3.34375 -2.457031 3.65625 -2.285156 3.84375 -2.078125 C 4.039062 -1.878906 4.140625 -1.617188 4.140625 -1.296875 C 4.140625 -0.847656 3.96875 -0.5 3.625 -0.25 C 3.289062 0 2.832031 0.125 2.25 0.125 C 1.945312 0.125 1.648438 0.09375 1.359375 0.03125 C 1.078125 -0.03125 0.789062 -0.128906 0.5 -0.265625 Z M 0.5 -0.265625 "/>
</g>
<g id="glyph-0-24">
<path d="M 1.84375 -0.46875 L 2.59375 -0.46875 L 2.59375 0 L 0.265625 0 L 0.265625 -0.46875 L 1.03125 -0.46875 L 1.03125 -6.34375 L 0.265625 -6.34375 L 0.265625 -6.8125 L 1.84375 -6.8125 Z M 1.84375 -0.46875 "/>
</g>
<g id="glyph-1-0">
<path d="M 0.546875 0 L 0.546875 -0.515625 L 1.46875 -0.515625 L 1.46875 -6.75 L 0.5 -6.75 L 0.5 -7.265625 L 2.609375 -7.265625 L 5.171875 -2.09375 L 7.71875 -7.265625 L 9.703125 -7.265625 L 9.703125 -6.75 L 8.734375 -6.75 L 8.734375 -0.515625 L 9.65625 -0.515625 L 9.65625 0 L 6.8125 0 L 6.8125 -0.515625 L 7.75 -0.515625 L 7.75 -6.140625 L 5.25 -1.0625 L 4.5625 -1.0625 L 2.078125 -6.140625 L 2.078125 -0.515625 L 3 -0.515625 L 3 0 Z M 0.546875 0 "/>
</g>
<g id="glyph-1-1">
<path d="M 3 -0.34375 C 3.476562 -0.34375 3.835938 -0.53125 4.078125 -0.90625 C 4.328125 -1.289062 4.453125 -1.851562 4.453125 -2.59375 C 4.453125 -3.332031 4.328125 -3.890625 4.078125 -4.265625 C 3.835938 -4.640625 3.476562 -4.828125 3 -4.828125 C 2.519531 -4.828125 2.15625 -4.640625 1.90625 -4.265625 C 1.664062 -3.890625 1.546875 -3.332031 1.546875 -2.59375 C 1.546875 -1.851562 1.664062 -1.289062 1.90625 -0.90625 C 2.15625 -0.53125 2.519531 -0.34375 3 -0.34375 Z M 3 0.140625 C 2.25 0.140625 1.644531 -0.109375 1.1875 -0.609375 C 0.726562 -1.109375 0.5 -1.769531 0.5 -2.59375 C 0.5 -3.414062 0.722656 -4.070312 1.171875 -4.5625 C 1.628906 -5.0625 2.238281 -5.3125 3 -5.3125 C 3.75 -5.3125 4.351562 -5.0625 4.8125 -4.5625 C 5.269531 -4.070312 5.5 -3.414062 5.5 -2.59375 C 5.5 -1.769531 5.269531 -1.109375 4.8125 -0.609375 C 4.351562 -0.109375 3.75 0.140625 3 0.140625 Z M 3 0.140625 "/>
</g>
<g id="glyph-1-2">
<path d="M 5.234375 -0.515625 L 6.09375 -0.515625 L 6.09375 0 L 4.34375 0 L 4.34375 -0.8125 C 4.164062 -0.488281 3.941406 -0.25 3.671875 -0.09375 C 3.398438 0.0625 3.0625 0.140625 2.65625 0.140625 C 2.019531 0.140625 1.5 -0.109375 1.09375 -0.609375 C 0.695312 -1.117188 0.5 -1.78125 0.5 -2.59375 C 0.5 -3.40625 0.695312 -4.0625 1.09375 -4.5625 C 1.5 -5.0625 2.019531 -5.3125 2.65625 -5.3125 C 3.0625 -5.3125 3.398438 -5.234375 3.671875 -5.078125 C 3.941406 -4.929688 4.164062 -4.691406 4.34375 -4.359375 L 4.34375 -7.0625 L 3.484375 -7.0625 L 3.484375 -7.578125 L 5.234375 -7.578125 Z M 4.34375 -2.328125 L 4.34375 -2.84375 C 4.34375 -3.457031 4.222656 -3.925781 3.984375 -4.25 C 3.742188 -4.582031 3.394531 -4.75 2.9375 -4.75 C 2.476562 -4.75 2.128906 -4.566406 1.890625 -4.203125 C 1.660156 -3.847656 1.546875 -3.3125 1.546875 -2.59375 C 1.546875 -1.875 1.660156 -1.332031 1.890625 -0.96875 C 2.128906 -0.601562 2.476562 -0.421875 2.9375 -0.421875 C 3.394531 -0.421875 3.742188 -0.582031 3.984375 -0.90625 C 4.222656 -1.226562 4.34375 -1.703125 4.34375 -2.328125 Z M 4.34375 -2.328125 "/>
</g>
<g id="glyph-1-3">
<path d="M 5.40625 -2.5 L 1.546875 -2.5 L 1.546875 -2.453125 C 1.546875 -1.753906 1.675781 -1.226562 1.9375 -0.875 C 2.195312 -0.519531 2.582031 -0.34375 3.09375 -0.34375 C 3.488281 -0.34375 3.8125 -0.441406 4.0625 -0.640625 C 4.3125 -0.847656 4.488281 -1.15625 4.59375 -1.5625 L 5.3125 -1.5625 C 5.164062 -1 4.898438 -0.570312 4.515625 -0.28125 C 4.140625 0 3.640625 0.140625 3.015625 0.140625 C 2.253906 0.140625 1.644531 -0.109375 1.1875 -0.609375 C 0.726562 -1.109375 0.5 -1.769531 0.5 -2.59375 C 0.5 -3.40625 0.722656 -4.0625 1.171875 -4.5625 C 1.617188 -5.0625 2.210938 -5.3125 2.953125 -5.3125 C 3.734375 -5.3125 4.332031 -5.070312 4.75 -4.59375 C 5.164062 -4.113281 5.382812 -3.414062 5.40625 -2.5 Z M 4.34375 -3.015625 C 4.320312 -3.609375 4.191406 -4.054688 3.953125 -4.359375 C 3.722656 -4.671875 3.390625 -4.828125 2.953125 -4.828125 C 2.535156 -4.828125 2.207031 -4.671875 1.96875 -4.359375 C 1.738281 -4.054688 1.597656 -3.609375 1.546875 -3.015625 Z M 4.34375 -3.015625 "/>
</g>
<g id="glyph-1-4">
<path d="M 2.046875 -0.515625 L 2.890625 -0.515625 L 2.890625 0 L 0.28125 0 L 0.28125 -0.515625 L 1.15625 -0.515625 L 1.15625 -7.0625 L 0.28125 -7.0625 L 0.28125 -7.578125 L 2.046875 -7.578125 Z M 2.046875 -0.515625 "/>
</g>
<g id="glyph-1-5">
</g>
<g id="glyph-1-6">
<path d="M 0.5625 -0.28125 L 0.5625 -1.5 L 1.078125 -1.5 C 1.085938 -1.113281 1.207031 -0.820312 1.4375 -0.625 C 1.664062 -0.4375 2.003906 -0.34375 2.453125 -0.34375 C 2.859375 -0.34375 3.164062 -0.414062 3.375 -0.5625 C 3.582031 -0.71875 3.6875 -0.941406 3.6875 -1.234375 C 3.6875 -1.453125 3.609375 -1.628906 3.453125 -1.765625 C 3.304688 -1.910156 2.984375 -2.0625 2.484375 -2.21875 L 1.828125 -2.4375 C 1.390625 -2.582031 1.066406 -2.757812 0.859375 -2.96875 C 0.660156 -3.1875 0.5625 -3.460938 0.5625 -3.796875 C 0.5625 -4.265625 0.734375 -4.632812 1.078125 -4.90625 C 1.429688 -5.175781 1.914062 -5.3125 2.53125 -5.3125 C 2.800781 -5.3125 3.085938 -5.273438 3.390625 -5.203125 C 3.691406 -5.128906 4.003906 -5.023438 4.328125 -4.890625 L 4.328125 -3.765625 L 3.8125 -3.765625 C 3.800781 -4.097656 3.679688 -4.359375 3.453125 -4.546875 C 3.234375 -4.734375 2.9375 -4.828125 2.5625 -4.828125 C 2.1875 -4.828125 1.898438 -4.757812 1.703125 -4.625 C 1.515625 -4.5 1.421875 -4.300781 1.421875 -4.03125 C 1.421875 -3.8125 1.492188 -3.632812 1.640625 -3.5 C 1.785156 -3.375 2.078125 -3.242188 2.515625 -3.109375 L 3.21875 -2.890625 C 3.707031 -2.734375 4.0625 -2.539062 4.28125 -2.3125 C 4.5 -2.082031 4.609375 -1.789062 4.609375 -1.4375 C 4.609375 -0.945312 4.421875 -0.5625 4.046875 -0.28125 C 3.671875 0 3.15625 0.140625 2.5 0.140625 C 2.15625 0.140625 1.820312 0.101562 1.5 0.03125 C 1.1875 -0.0390625 0.875 -0.144531 0.5625 -0.28125 Z M 0.5625 -0.28125 "/>
</g>
<g id="glyph-1-7">
<path d="M 0.96875 -6.78125 C 0.96875 -6.925781 1.019531 -7.050781 1.125 -7.15625 C 1.238281 -7.269531 1.375 -7.328125 1.53125 -7.328125 C 1.675781 -7.328125 1.800781 -7.269531 1.90625 -7.15625 C 2.019531 -7.050781 2.078125 -6.925781 2.078125 -6.78125 C 2.078125 -6.625 2.019531 -6.492188 1.90625 -6.390625 C 1.800781 -6.285156 1.675781 -6.234375 1.53125 -6.234375 C 1.375 -6.234375 1.238281 -6.285156 1.125 -6.390625 C 1.019531 -6.492188 0.96875 -6.625 0.96875 -6.78125 Z M 2.109375 -0.515625 L 2.953125 -0.515625 L 2.953125 0 L 0.359375 0 L 0.359375 -0.515625 L 1.21875 -0.515625 L 1.21875 -4.65625 L 0.359375 -4.65625 L 0.359375 -5.171875 L 2.109375 -5.171875 Z M 2.109375 -0.515625 "/>
</g>
<g id="glyph-1-8">
<path d="M 0.40625 0 L 0.40625 -0.421875 L 3.640625 -4.65625 L 1.078125 -4.65625 L 1.078125 -3.75 L 0.5625 -3.75 L 0.5625 -5.171875 L 4.796875 -5.171875 L 4.796875 -4.75 L 1.546875 -0.515625 L 4.359375 -0.515625 L 4.359375 -1.453125 L 4.890625 -1.453125 L 4.890625 0 Z M 0.40625 0 "/>
</g>
<g id="glyph-2-0">
<path d="M -3.703125 -2.46875 L -3.703125 -3.75 C -3.703125 -4.226562 -3.832031 -4.59375 -4.09375 -4.84375 C -4.351562 -5.101562 -4.726562 -5.234375 -5.21875 -5.234375 C -5.71875 -5.234375 -6.097656 -5.101562 -6.359375 -4.84375 C -6.617188 -4.59375 -6.75 -4.226562 -6.75 -3.75 L -6.75 -2.46875 Z M 0 -0.546875 L -0.515625 -0.546875 L -0.515625 -1.46875 L -6.75 -1.46875 L -6.75 -0.546875 L -7.265625 -0.546875 L -7.265625 -3.984375 C -7.265625 -4.710938 -7.078125 -5.289062 -6.703125 -5.71875 C -6.335938 -6.144531 -5.84375 -6.359375 -5.21875 -6.359375 C -4.59375 -6.359375 -4.09375 -6.144531 -3.71875 -5.71875 C -3.351562 -5.289062 -3.171875 -4.710938 -3.171875 -3.984375 L -3.171875 -2.46875 L -0.515625 -2.46875 L -0.515625 -3.59375 L 0 -3.59375 Z M 0 -0.546875 "/>
</g>
<g id="glyph-2-1">
<path d="M -2.5 -5.40625 L -2.5 -1.546875 L -2.453125 -1.546875 C -1.753906 -1.546875 -1.226562 -1.675781 -0.875 -1.9375 C -0.519531 -2.195312 -0.34375 -2.582031 -0.34375 -3.09375 C -0.34375 -3.488281 -0.441406 -3.8125 -0.640625 -4.0625 C -0.847656 -4.3125 -1.15625 -4.488281 -1.5625 -4.59375 L -1.5625 -5.3125 C -1 -5.164062 -0.570312 -4.898438 -0.28125 -4.515625 C 0 -4.140625 0.140625 -3.640625 0.140625 -3.015625 C 0.140625 -2.253906 -0.109375 -1.644531 -0.609375 -1.1875 C -1.109375 -0.726562 -1.769531 -0.5 -2.59375 -0.5 C -3.40625 -0.5 -4.0625 -0.722656 -4.5625 -1.171875 C -5.0625 -1.617188 -5.3125 -2.210938 -5.3125 -2.953125 C -5.3125 -3.734375 -5.070312 -4.332031 -4.59375 -4.75 C -4.113281 -5.164062 -3.414062 -5.382812 -2.5 -5.40625 Z M -3.015625 -4.34375 C -3.609375 -4.320312 -4.054688 -4.191406 -4.359375 -3.953125 C -4.671875 -3.722656 -4.828125 -3.390625 -4.828125 -2.953125 C -4.828125 -2.535156 -4.671875 -2.207031 -4.359375 -1.96875 C -4.054688 -1.738281 -3.609375 -1.597656 -3.015625 -1.546875 Z M -3.015625 -4.34375 "/>
</g>
<g id="glyph-2-2">
<path d="M -1.625 -3.96875 L -2.71875 -3.96875 L -2.71875 -2.8125 C -2.71875 -2.363281 -2.617188 -2.03125 -2.421875 -1.8125 C -2.234375 -1.601562 -1.941406 -1.5 -1.546875 -1.5 C -1.191406 -1.5 -0.90625 -1.609375 -0.6875 -1.828125 C -0.476562 -2.046875 -0.375 -2.34375 -0.375 -2.71875 C -0.375 -3.09375 -0.488281 -3.394531 -0.71875 -3.625 C -0.957031 -3.851562 -1.257812 -3.96875 -1.625 -3.96875 Z M -3.234375 -4.859375 L -0.515625 -4.859375 L -0.515625 -5.65625 L 0 -5.65625 L 0 -3.96875 L -0.5625 -3.96875 C -0.320312 -3.769531 -0.144531 -3.539062 -0.03125 -3.28125 C 0.0820312 -3.019531 0.140625 -2.71875 0.140625 -2.375 C 0.140625 -1.800781 -0.0078125 -1.34375 -0.3125 -1 C -0.625 -0.664062 -1.035156 -0.5 -1.546875 -0.5 C -2.085938 -0.5 -2.503906 -0.691406 -2.796875 -1.078125 C -3.085938 -1.460938 -3.234375 -2.007812 -3.234375 -2.71875 L -3.234375 -3.96875 L -3.59375 -3.96875 C -3.988281 -3.96875 -4.289062 -3.847656 -4.5 -3.609375 C -4.71875 -3.367188 -4.828125 -3.035156 -4.828125 -2.609375 C -4.828125 -2.242188 -4.742188 -1.957031 -4.578125 -1.75 C -4.421875 -1.539062 -4.1875 -1.410156 -3.875 -1.359375 L -3.875 -0.890625 L -4.921875 -0.890625 C -5.046875 -1.203125 -5.140625 -1.503906 -5.203125 -1.796875 C -5.273438 -2.097656 -5.3125 -2.382812 -5.3125 -2.65625 C -5.3125 -3.375 -5.132812 -3.921875 -4.78125 -4.296875 C -4.425781 -4.671875 -3.910156 -4.859375 -3.234375 -4.859375 Z M -3.234375 -4.859375 "/>
</g>
<g id="glyph-2-3">
<path d="M 0 -2.859375 L 0 -0.34375 L -0.515625 -0.34375 L -0.515625 -1.15625 L -7.0625 -1.15625 L -7.0625 -0.28125 L -7.578125 -0.28125 L -7.578125 -2.046875 L -2.640625 -2.046875 L -4.65625 -4.21875 L -4.65625 -3.484375 L -5.171875 -3.484375 L -5.171875 -5.828125 L -4.65625 -5.828125 L -4.65625 -4.9375 L -3.234375 -3.390625 L -0.515625 -5.359375 L -0.515625 -6.109375 L 0 -6.109375 L 0 -3.5625 L -0.515625 -3.5625 L -0.515625 -4.296875 L -2.640625 -2.75 L -1.984375 -2.046875 L -0.515625 -2.046875 L -0.515625 -2.859375 Z M 0 -2.859375 "/>
</g>
<g id="glyph-2-4">
</g>
<g id="glyph-2-5">
<path d="M -5.09375 -6.375 C -5.695312 -6.269531 -6.144531 -6.035156 -6.4375 -5.671875 C -6.726562 -5.304688 -6.875 -4.804688 -6.875 -4.171875 C -6.875 -3.328125 -6.601562 -2.695312 -6.0625 -2.28125 C -5.53125 -1.875 -4.71875 -1.671875 -3.625 -1.671875 C -2.5625 -1.671875 -1.753906 -1.882812 -1.203125 -2.3125 C -0.648438 -2.738281 -0.375 -3.363281 -0.375 -4.1875 C -0.375 -4.550781 -0.421875 -4.898438 -0.515625 -5.234375 C -0.609375 -5.566406 -0.742188 -5.882812 -0.921875 -6.1875 L -2.796875 -6.1875 L -2.796875 -4.828125 L -3.3125 -4.828125 L -3.3125 -7.171875 L -0.609375 -7.171875 C -0.359375 -6.742188 -0.171875 -6.28125 -0.046875 -5.78125 C 0.078125 -5.28125 0.140625 -4.75 0.140625 -4.1875 C 0.140625 -3.09375 -0.203125 -2.210938 -0.890625 -1.546875 C -1.578125 -0.890625 -2.488281 -0.5625 -3.625 -0.5625 C -4.769531 -0.5625 -5.6875 -0.890625 -6.375 -1.546875 C -7.0625 -2.210938 -7.40625 -3.101562 -7.40625 -4.21875 C -7.40625 -4.632812 -7.351562 -5.0625 -7.25 -5.5 C -7.15625 -5.945312 -7.007812 -6.421875 -6.8125 -6.921875 L -5.09375 -6.921875 Z M -5.09375 -6.375 "/>
</g>
<g id="glyph-2-6">
<path d="M -6.75 -1.390625 L -6.75 -0.46875 L -7.265625 -0.46875 L -7.265625 -3.3125 L -6.75 -3.3125 L -6.75 -2.375 L -2.984375 -2.375 C -2.054688 -2.375 -1.410156 -2.523438 -1.046875 -2.828125 C -0.679688 -3.140625 -0.5 -3.664062 -0.5 -4.40625 C -0.5 -5.144531 -0.679688 -5.664062 -1.046875 -5.96875 C -1.410156 -6.28125 -2.054688 -6.4375 -2.984375 -6.4375 L -6.75 -6.4375 L -6.75 -5.5 L -7.265625 -5.5 L -7.265625 -7.953125 L -6.75 -7.953125 L -6.75 -7.03125 L -2.890625 -7.03125 C -1.785156 -7.03125 -1.003906 -6.816406 -0.546875 -6.390625 C -0.0859375 -5.960938 0.140625 -5.238281 0.140625 -4.21875 C 0.140625 -3.207031 -0.0859375 -2.484375 -0.546875 -2.046875 C -1.003906 -1.609375 -1.785156 -1.390625 -2.890625 -1.390625 Z M -6.75 -1.390625 "/>
</g>
<g id="glyph-2-7">
<path d="M -4.171875 -5.171875 C -4.546875 -5.335938 -4.828125 -5.550781 -5.015625 -5.8125 C -5.210938 -6.082031 -5.3125 -6.398438 -5.3125 -6.765625 C -5.3125 -7.304688 -5.144531 -7.707031 -4.8125 -7.96875 C -4.476562 -8.238281 -3.972656 -8.375 -3.296875 -8.375 L -0.515625 -8.375 L -0.515625 -9.1875 L 0 -9.1875 L 0 -6.703125 L -0.515625 -6.703125 L -0.515625 -7.484375 L -3.1875 -7.484375 C -3.71875 -7.484375 -4.09375 -7.40625 -4.3125 -7.25 C -4.539062 -7.09375 -4.65625 -6.832031 -4.65625 -6.46875 C -4.65625 -6.070312 -4.503906 -5.769531 -4.203125 -5.5625 C -3.898438 -5.351562 -3.457031 -5.25 -2.875 -5.25 L -0.515625 -5.25 L -0.515625 -6.015625 L 0 -6.015625 L 0 -3.5625 L -0.515625 -3.5625 L -0.515625 -4.34375 L -3.21875 -4.34375 C -3.738281 -4.34375 -4.109375 -4.265625 -4.328125 -4.109375 C -4.546875 -3.953125 -4.65625 -3.695312 -4.65625 -3.34375 C -4.65625 -2.9375 -4.503906 -2.628906 -4.203125 -2.421875 C -3.898438 -2.210938 -3.457031 -2.109375 -2.875 -2.109375 L -0.515625 -2.109375 L -0.515625 -2.890625 L 0 -2.890625 L 0 -0.40625 L -0.515625 -0.40625 L -0.515625 -1.21875 L -4.65625 -1.21875 L -4.65625 -0.359375 L -5.171875 -0.359375 L -5.171875 -2.109375 L -4.25 -2.109375 C -4.59375 -2.273438 -4.851562 -2.484375 -5.03125 -2.734375 C -5.21875 -2.992188 -5.3125 -3.285156 -5.3125 -3.609375 C -5.3125 -4.015625 -5.210938 -4.351562 -5.015625 -4.625 C -4.816406 -4.894531 -4.535156 -5.078125 -4.171875 -5.171875 Z M -4.171875 -5.171875 "/>
</g>
<g id="glyph-2-8">
<path d="M -0.34375 -3 C -0.34375 -3.476562 -0.53125 -3.835938 -0.90625 -4.078125 C -1.289062 -4.328125 -1.851562 -4.453125 -2.59375 -4.453125 C -3.332031 -4.453125 -3.890625 -4.328125 -4.265625 -4.078125 C -4.640625 -3.835938 -4.828125 -3.476562 -4.828125 -3 C -4.828125 -2.519531 -4.640625 -2.15625 -4.265625 -1.90625 C -3.890625 -1.664062 -3.332031 -1.546875 -2.59375 -1.546875 C -1.851562 -1.546875 -1.289062 -1.664062 -0.90625 -1.90625 C -0.53125 -2.15625 -0.34375 -2.519531 -0.34375 -3 Z M 0.140625 -3 C 0.140625 -2.25 -0.109375 -1.644531 -0.609375 -1.1875 C -1.109375 -0.726562 -1.769531 -0.5 -2.59375 -0.5 C -3.414062 -0.5 -4.070312 -0.722656 -4.5625 -1.171875 C -5.0625 -1.628906 -5.3125 -2.238281 -5.3125 -3 C -5.3125 -3.75 -5.0625 -4.351562 -4.5625 -4.8125 C -4.070312 -5.269531 -3.414062 -5.5 -2.59375 -5.5 C -1.769531 -5.5 -1.109375 -5.269531 -0.609375 -4.8125 C -0.109375 -4.351562 0.140625 -3.75 0.140625 -3 Z M 0.140625 -3 "/>
</g>
<g id="glyph-2-9">
<path d="M -5.1875 -4.765625 L -3.890625 -4.765625 L -3.890625 -4.25 C -4.148438 -4.226562 -4.34375 -4.15625 -4.46875 -4.03125 C -4.59375 -3.90625 -4.65625 -3.722656 -4.65625 -3.484375 C -4.65625 -3.035156 -4.5 -2.691406 -4.1875 -2.453125 C -3.882812 -2.222656 -3.445312 -2.109375 -2.875 -2.109375 L -0.515625 -2.109375 L -0.515625 -3.15625 L 0 -3.15625 L 0 -0.40625 L -0.515625 -0.40625 L -0.515625 -1.21875 L -4.65625 -1.21875 L -4.65625 -0.359375 L -5.171875 -0.359375 L -5.171875 -2.109375 L -4.25 -2.109375 C -4.613281 -2.285156 -4.878906 -2.507812 -5.046875 -2.78125 C -5.222656 -3.0625 -5.3125 -3.398438 -5.3125 -3.796875 C -5.3125 -3.941406 -5.300781 -4.09375 -5.28125 -4.25 C -5.257812 -4.414062 -5.226562 -4.585938 -5.1875 -4.765625 Z M -5.1875 -4.765625 "/>
</g>
<g id="glyph-2-10">
<path d="M 0.953125 -2.15625 L 0.09375 -2.5 L -4.65625 -0.5625 L -4.65625 0.03125 L -5.171875 0.03125 L -5.171875 -2.34375 L -4.65625 -2.34375 L -4.65625 -1.53125 L -1.09375 -2.984375 L -4.65625 -4.4375 L -4.65625 -3.65625 L -5.171875 -3.65625 L -5.171875 -5.609375 L -4.65625 -5.609375 L -4.65625 -5.015625 L 1.171875 -2.65625 C 1.566406 -2.488281 1.835938 -2.304688 1.984375 -2.109375 C 2.140625 -1.910156 2.21875 -1.632812 2.21875 -1.28125 C 2.21875 -1.125 2.203125 -0.960938 2.171875 -0.796875 C 2.148438 -0.640625 2.113281 -0.484375 2.0625 -0.328125 L 1.078125 -0.328125 L 1.078125 -0.78125 C 1.296875 -0.800781 1.453125 -0.851562 1.546875 -0.9375 C 1.640625 -1.03125 1.6875 -1.175781 1.6875 -1.375 C 1.6875 -1.550781 1.632812 -1.691406 1.53125 -1.796875 C 1.4375 -1.910156 1.242188 -2.03125 0.953125 -2.15625 Z M 0.953125 -2.15625 "/>
</g>
<g id="glyph-2-11">
<path d="M 1.546875 -3.171875 C 1.191406 -2.390625 0.632812 -1.796875 -0.125 -1.390625 C -0.894531 -0.984375 -1.859375 -0.78125 -3.015625 -0.78125 C -4.160156 -0.78125 -5.117188 -0.984375 -5.890625 -1.390625 C -6.660156 -1.796875 -7.222656 -2.390625 -7.578125 -3.171875 L -7.09375 -3.171875 C -6.75 -2.671875 -6.265625 -2.3125 -5.640625 -2.09375 C -5.015625 -1.882812 -4.140625 -1.78125 -3.015625 -1.78125 C -1.878906 -1.78125 -1 -1.882812 -0.375 -2.09375 C 0.25 -2.3125 0.734375 -2.671875 1.078125 -3.171875 Z M 1.546875 -3.171875 "/>
</g>
<g id="glyph-2-12">
<path d="M -6.78125 -0.96875 C -6.925781 -0.96875 -7.050781 -1.019531 -7.15625 -1.125 C -7.269531 -1.238281 -7.328125 -1.375 -7.328125 -1.53125 C -7.328125 -1.675781 -7.269531 -1.800781 -7.15625 -1.90625 C -7.050781 -2.019531 -6.925781 -2.078125 -6.78125 -2.078125 C -6.625 -2.078125 -6.492188 -2.019531 -6.390625 -1.90625 C -6.285156 -1.800781 -6.234375 -1.675781 -6.234375 -1.53125 C -6.234375 -1.375 -6.285156 -1.238281 -6.390625 -1.125 C -6.492188 -1.019531 -6.625 -0.96875 -6.78125 -0.96875 Z M -0.515625 -2.109375 L -0.515625 -2.953125 L 0 -2.953125 L 0 -0.359375 L -0.515625 -0.359375 L -0.515625 -1.21875 L -4.65625 -1.21875 L -4.65625 -0.359375 L -5.171875 -0.359375 L -5.171875 -2.109375 Z M -0.515625 -2.109375 "/>
</g>
<g id="glyph-2-13">
<path d="M -0.515625 -2.46875 L -0.515625 -3.921875 C -0.515625 -4.503906 -0.640625 -4.929688 -0.890625 -5.203125 C -1.148438 -5.472656 -1.554688 -5.609375 -2.109375 -5.609375 C -2.648438 -5.609375 -3.046875 -5.472656 -3.296875 -5.203125 C -3.554688 -4.929688 -3.6875 -4.503906 -3.6875 -3.921875 L -3.6875 -2.46875 Z M -4.203125 -2.46875 L -4.203125 -3.703125 C -4.203125 -4.234375 -4.300781 -4.617188 -4.5 -4.859375 C -4.707031 -5.109375 -5.03125 -5.234375 -5.46875 -5.234375 C -5.914062 -5.234375 -6.238281 -5.109375 -6.4375 -4.859375 C -6.644531 -4.617188 -6.75 -4.234375 -6.75 -3.703125 L -6.75 -2.46875 Z M 0 -0.546875 L -0.515625 -0.546875 L -0.515625 -1.46875 L -6.75 -1.46875 L -6.75 -0.546875 L -7.265625 -0.546875 L -7.265625 -4.140625 C -7.265625 -4.867188 -7.113281 -5.421875 -6.8125 -5.796875 C -6.507812 -6.171875 -6.0625 -6.359375 -5.46875 -6.359375 C -5.039062 -6.359375 -4.695312 -6.226562 -4.4375 -5.96875 C -4.175781 -5.707031 -4.019531 -5.328125 -3.96875 -4.828125 C -3.882812 -5.453125 -3.6875 -5.921875 -3.375 -6.234375 C -3.0625 -6.554688 -2.640625 -6.71875 -2.109375 -6.71875 C -1.378906 -6.71875 -0.84375 -6.488281 -0.5 -6.03125 C -0.164062 -5.582031 0 -4.875 0 -3.90625 Z M 0 -0.546875 "/>
</g>
<g id="glyph-2-14">
<path d="M 1.546875 -0.703125 L 1.078125 -0.703125 C 0.734375 -1.203125 0.25 -1.5625 -0.375 -1.78125 C -1 -2 -1.878906 -2.109375 -3.015625 -2.109375 C -4.140625 -2.109375 -5.015625 -2 -5.640625 -1.78125 C -6.265625 -1.5625 -6.75 -1.203125 -7.09375 -0.703125 L -7.578125 -0.703125 C -7.222656 -1.492188 -6.660156 -2.085938 -5.890625 -2.484375 C -5.117188 -2.890625 -4.160156 -3.09375 -3.015625 -3.09375 C -1.859375 -3.09375 -0.894531 -2.890625 -0.125 -2.484375 C 0.632812 -2.085938 1.191406 -1.492188 1.546875 -0.703125 Z M 1.546875 -0.703125 "/>
</g>
<g id="glyph-3-0">
<path d="M 1.125 0 L 1.125 -0.40625 L 2.140625 -0.40625 L 2.140625 -5.25 L 0.96875 -4.484375 L 0.96875 -5 L 2.390625 -5.921875 L 2.921875 -5.921875 L 2.921875 -0.40625 L 3.9375 -0.40625 L 3.9375 0 Z M 1.125 0 "/>
</g>
<g id="glyph-3-1">
<path d="M 0.75 -0.40625 C 0.75 -0.550781 0.796875 -0.671875 0.890625 -0.765625 C 0.992188 -0.867188 1.117188 -0.921875 1.265625 -0.921875 C 1.410156 -0.921875 1.53125 -0.867188 1.625 -0.765625 C 1.726562 -0.671875 1.78125 -0.550781 1.78125 -0.40625 C 1.78125 -0.257812 1.726562 -0.132812 1.625 -0.03125 C 1.53125 0.0625 1.410156 0.109375 1.265625 0.109375 C 1.117188 0.109375 0.992188 0.0625 0.890625 -0.03125 C 0.796875 -0.132812 0.75 -0.257812 0.75 -0.40625 Z M 0.75 -0.40625 "/>
</g>
<g id="glyph-3-2">
<path d="M 2.53125 -0.265625 C 2.925781 -0.265625 3.222656 -0.484375 3.421875 -0.921875 C 3.617188 -1.359375 3.71875 -2.019531 3.71875 -2.90625 C 3.71875 -3.78125 3.617188 -4.4375 3.421875 -4.875 C 3.222656 -5.3125 2.925781 -5.53125 2.53125 -5.53125 C 2.132812 -5.53125 1.835938 -5.3125 1.640625 -4.875 C 1.441406 -4.4375 1.34375 -3.78125 1.34375 -2.90625 C 1.34375 -2.019531 1.441406 -1.359375 1.640625 -0.921875 C 1.835938 -0.484375 2.132812 -0.265625 2.53125 -0.265625 Z M 2.53125 0.109375 C 1.90625 0.109375 1.414062 -0.148438 1.0625 -0.671875 C 0.707031 -1.203125 0.53125 -1.945312 0.53125 -2.90625 C 0.53125 -3.851562 0.707031 -4.59375 1.0625 -5.125 C 1.414062 -5.65625 1.90625 -5.921875 2.53125 -5.921875 C 3.164062 -5.921875 3.660156 -5.65625 4.015625 -5.125 C 4.367188 -4.59375 4.546875 -3.851562 4.546875 -2.90625 C 4.546875 -1.945312 4.367188 -1.203125 4.015625 -0.671875 C 3.660156 -0.148438 3.164062 0.109375 2.53125 0.109375 Z M 2.53125 0.109375 "/>
</g>
<g id="glyph-3-3">
<path d="M 3.71875 -1.59375 C 3.71875 -2 3.613281 -2.316406 3.40625 -2.546875 C 3.195312 -2.785156 2.90625 -2.90625 2.53125 -2.90625 C 2.15625 -2.90625 1.863281 -2.785156 1.65625 -2.546875 C 1.457031 -2.316406 1.359375 -2 1.359375 -1.59375 C 1.359375 -1.175781 1.457031 -0.847656 1.65625 -0.609375 C 1.863281 -0.378906 2.15625 -0.265625 2.53125 -0.265625 C 2.90625 -0.265625 3.195312 -0.378906 3.40625 -0.609375 C 3.613281 -0.847656 3.71875 -1.175781 3.71875 -1.59375 Z M 3.546875 -4.40625 C 3.546875 -4.757812 3.457031 -5.035156 3.28125 -5.234375 C 3.101562 -5.429688 2.851562 -5.53125 2.53125 -5.53125 C 2.207031 -5.53125 1.957031 -5.429688 1.78125 -5.234375 C 1.601562 -5.035156 1.515625 -4.757812 1.515625 -4.40625 C 1.515625 -4.050781 1.601562 -3.773438 1.78125 -3.578125 C 1.957031 -3.378906 2.207031 -3.28125 2.53125 -3.28125 C 2.851562 -3.28125 3.101562 -3.378906 3.28125 -3.578125 C 3.457031 -3.773438 3.546875 -4.050781 3.546875 -4.40625 Z M 3.125 -3.09375 C 3.570312 -3.03125 3.914062 -2.863281 4.15625 -2.59375 C 4.40625 -2.332031 4.53125 -2 4.53125 -1.59375 C 4.53125 -1.039062 4.359375 -0.617188 4.015625 -0.328125 C 3.671875 -0.0351562 3.175781 0.109375 2.53125 0.109375 C 1.894531 0.109375 1.398438 -0.0351562 1.046875 -0.328125 C 0.703125 -0.617188 0.53125 -1.039062 0.53125 -1.59375 C 0.53125 -2 0.648438 -2.332031 0.890625 -2.59375 C 1.140625 -2.863281 1.488281 -3.03125 1.9375 -3.09375 C 1.539062 -3.164062 1.238281 -3.3125 1.03125 -3.53125 C 0.820312 -3.757812 0.71875 -4.050781 0.71875 -4.40625 C 0.71875 -4.875 0.878906 -5.242188 1.203125 -5.515625 C 1.523438 -5.785156 1.96875 -5.921875 2.53125 -5.921875 C 3.09375 -5.921875 3.535156 -5.785156 3.859375 -5.515625 C 4.179688 -5.242188 4.34375 -4.875 4.34375 -4.40625 C 4.34375 -4.050781 4.238281 -3.757812 4.03125 -3.53125 C 3.820312 -3.3125 3.519531 -3.164062 3.125 -3.09375 Z M 3.125 -3.09375 "/>
</g>
<g id="glyph-3-4">
<path d="M 3.734375 -2.609375 C 3.554688 -2.410156 3.351562 -2.257812 3.125 -2.15625 C 2.90625 -2.0625 2.648438 -2.015625 2.359375 -2.015625 C 1.785156 -2.015625 1.332031 -2.1875 1 -2.53125 C 0.664062 -2.882812 0.5 -3.363281 0.5 -3.96875 C 0.5 -4.5625 0.679688 -5.035156 1.046875 -5.390625 C 1.410156 -5.742188 1.894531 -5.921875 2.5 -5.921875 C 3.15625 -5.921875 3.65625 -5.675781 4 -5.1875 C 4.351562 -4.695312 4.53125 -3.992188 4.53125 -3.078125 C 4.53125 -2.066406 4.320312 -1.28125 3.90625 -0.71875 C 3.488281 -0.164062 2.898438 0.109375 2.140625 0.109375 C 1.941406 0.109375 1.726562 0.0859375 1.5 0.046875 C 1.269531 0.015625 1.039062 -0.0390625 0.8125 -0.125 L 0.8125 -1.078125 L 1.234375 -1.078125 C 1.273438 -0.816406 1.378906 -0.613281 1.546875 -0.46875 C 1.710938 -0.332031 1.9375 -0.265625 2.21875 -0.265625 C 2.726562 -0.265625 3.101562 -0.453125 3.34375 -0.828125 C 3.59375 -1.210938 3.722656 -1.804688 3.734375 -2.609375 Z M 2.46875 -5.53125 C 2.09375 -5.53125 1.804688 -5.394531 1.609375 -5.125 C 1.421875 -4.851562 1.328125 -4.46875 1.328125 -3.96875 C 1.328125 -3.46875 1.421875 -3.082031 1.609375 -2.8125 C 1.804688 -2.539062 2.09375 -2.40625 2.46875 -2.40625 C 2.832031 -2.40625 3.113281 -2.535156 3.3125 -2.796875 C 3.507812 -3.054688 3.609375 -3.429688 3.609375 -3.921875 C 3.609375 -4.441406 3.507812 -4.835938 3.3125 -5.109375 C 3.113281 -5.390625 2.832031 -5.53125 2.46875 -5.53125 Z M 2.46875 -5.53125 "/>
</g>
<g id="glyph-3-5">
<path d="M 0.78125 -5.5625 C 1.082031 -5.675781 1.367188 -5.765625 1.640625 -5.828125 C 1.921875 -5.890625 2.1875 -5.921875 2.4375 -5.921875 C 3 -5.921875 3.4375 -5.796875 3.75 -5.546875 C 4.070312 -5.296875 4.234375 -4.957031 4.234375 -4.53125 C 4.234375 -4.175781 4.125 -3.878906 3.90625 -3.640625 C 3.6875 -3.410156 3.375 -3.253906 2.96875 -3.171875 C 3.445312 -3.097656 3.816406 -2.921875 4.078125 -2.640625 C 4.347656 -2.367188 4.484375 -2.007812 4.484375 -1.5625 C 4.484375 -1.019531 4.300781 -0.601562 3.9375 -0.3125 C 3.570312 -0.03125 3.046875 0.109375 2.359375 0.109375 C 2.054688 0.109375 1.757812 0.078125 1.46875 0.015625 C 1.175781 -0.046875 0.890625 -0.144531 0.609375 -0.28125 L 0.609375 -1.40625 L 1.046875 -1.40625 C 1.066406 -1.03125 1.191406 -0.742188 1.421875 -0.546875 C 1.648438 -0.359375 1.96875 -0.265625 2.375 -0.265625 C 2.769531 -0.265625 3.082031 -0.378906 3.3125 -0.609375 C 3.539062 -0.847656 3.65625 -1.164062 3.65625 -1.5625 C 3.65625 -2.019531 3.535156 -2.363281 3.296875 -2.59375 C 3.066406 -2.832031 2.722656 -2.953125 2.265625 -2.953125 L 1.890625 -2.953125 L 1.890625 -3.34375 L 2.09375 -3.34375 C 2.539062 -3.34375 2.878906 -3.4375 3.109375 -3.625 C 3.335938 -3.8125 3.453125 -4.097656 3.453125 -4.484375 C 3.453125 -4.816406 3.359375 -5.070312 3.171875 -5.25 C 2.984375 -5.4375 2.710938 -5.53125 2.359375 -5.53125 C 2.015625 -5.53125 1.742188 -5.445312 1.546875 -5.28125 C 1.359375 -5.113281 1.242188 -4.867188 1.203125 -4.546875 L 0.78125 -4.546875 Z M 0.78125 -5.5625 "/>
</g>
<g id="glyph-3-6">
<path d="M 2.609375 -0.265625 C 2.972656 -0.265625 3.253906 -0.398438 3.453125 -0.671875 C 3.648438 -0.941406 3.75 -1.328125 3.75 -1.828125 C 3.75 -2.335938 3.648438 -2.722656 3.453125 -2.984375 C 3.253906 -3.253906 2.972656 -3.390625 2.609375 -3.390625 C 2.234375 -3.390625 1.945312 -3.257812 1.75 -3 C 1.5625 -2.738281 1.46875 -2.363281 1.46875 -1.875 C 1.46875 -1.363281 1.566406 -0.96875 1.765625 -0.6875 C 1.960938 -0.40625 2.242188 -0.265625 2.609375 -0.265625 Z M 1.34375 -3.203125 C 1.519531 -3.390625 1.71875 -3.53125 1.9375 -3.625 C 2.15625 -3.726562 2.40625 -3.78125 2.6875 -3.78125 C 3.269531 -3.78125 3.726562 -3.601562 4.0625 -3.25 C 4.394531 -2.90625 4.5625 -2.429688 4.5625 -1.828125 C 4.5625 -1.242188 4.378906 -0.773438 4.015625 -0.421875 C 3.660156 -0.0664062 3.179688 0.109375 2.578125 0.109375 C 1.921875 0.109375 1.414062 -0.132812 1.0625 -0.625 C 0.707031 -1.113281 0.53125 -1.8125 0.53125 -2.71875 C 0.53125 -3.726562 0.738281 -4.515625 1.15625 -5.078125 C 1.570312 -5.640625 2.160156 -5.921875 2.921875 -5.921875 C 3.128906 -5.921875 3.34375 -5.898438 3.5625 -5.859375 C 3.789062 -5.816406 4.023438 -5.757812 4.265625 -5.6875 L 4.265625 -4.71875 L 3.828125 -4.71875 C 3.796875 -4.976562 3.691406 -5.175781 3.515625 -5.3125 C 3.347656 -5.457031 3.125 -5.53125 2.84375 -5.53125 C 2.34375 -5.53125 1.96875 -5.335938 1.71875 -4.953125 C 1.46875 -4.578125 1.34375 -3.992188 1.34375 -3.203125 Z M 1.34375 -3.203125 "/>
</g>
<g id="glyph-3-7">
<path d="M 4.5 -5.40625 L 2.21875 0 L 1.640625 0 L 3.8125 -5.171875 L 1.125 -5.171875 L 1.125 -4.453125 L 0.671875 -4.453125 L 0.671875 -5.8125 L 4.5 -5.8125 Z M 4.5 -5.40625 "/>
</g>
<g id="glyph-3-8">
<path d="M 1.015625 -4.421875 L 0.578125 -4.421875 L 0.578125 -5.453125 C 0.859375 -5.609375 1.140625 -5.722656 1.421875 -5.796875 C 1.703125 -5.878906 1.976562 -5.921875 2.25 -5.921875 C 2.851562 -5.921875 3.328125 -5.769531 3.671875 -5.46875 C 4.023438 -5.175781 4.203125 -4.78125 4.203125 -4.28125 C 4.203125 -3.707031 3.804688 -3.023438 3.015625 -2.234375 C 2.953125 -2.179688 2.90625 -2.140625 2.875 -2.109375 L 1.40625 -0.640625 L 3.828125 -0.640625 L 3.828125 -1.359375 L 4.28125 -1.359375 L 4.28125 0 L 0.546875 0 L 0.546875 -0.421875 L 2.296875 -2.1875 C 2.691406 -2.570312 2.972656 -2.925781 3.140625 -3.25 C 3.304688 -3.582031 3.390625 -3.925781 3.390625 -4.28125 C 3.390625 -4.675781 3.285156 -4.984375 3.078125 -5.203125 C 2.878906 -5.421875 2.597656 -5.53125 2.234375 -5.53125 C 1.867188 -5.53125 1.582031 -5.4375 1.375 -5.25 C 1.175781 -5.070312 1.054688 -4.796875 1.015625 -4.421875 Z M 1.015625 -4.421875 "/>
</g>
<g id="glyph-3-9">
<path d="M 2.78125 -1.96875 L 2.78125 -5.0625 L 0.796875 -1.96875 Z M 4.5 0 L 1.84375 0 L 1.84375 -0.40625 L 2.78125 -0.40625 L 2.78125 -1.546875 L 0.25 -1.546875 L 0.25 -1.984375 L 2.796875 -5.921875 L 3.5625 -5.921875 L 3.5625 -1.96875 L 4.671875 -1.96875 L 4.671875 -1.546875 L 3.5625 -1.546875 L 3.5625 -0.40625 L 4.5 -0.40625 Z M 4.5 0 "/>
</g>
</g>
<clipPath id="clip-0">
<path clip-rule="nonzero" d="M 0.492188 0 L 437.707031 0 L 437.707031 227.554688 L 0.492188 227.554688 Z M 0.492188 0 "/>
</clipPath>
<clipPath id="clip-1">
<path clip-rule="nonzero" d="M 39.351562 191 L 430.53125 191 L 430.53125 191.578125 L 39.351562 191.578125 Z M 39.351562 191 "/>
</clipPath>
<clipPath id="clip-2">
<path clip-rule="nonzero" d="M 39.351562 158 L 430.53125 158 L 430.53125 160 L 39.351562 160 Z M 39.351562 158 "/>
</clipPath>
<clipPath id="clip-3">
<path clip-rule="nonzero" d="M 39.351562 125 L 430.53125 125 L 430.53125 127 L 39.351562 127 Z M 39.351562 125 "/>
</clipPath>
<clipPath id="clip-4">
<path clip-rule="nonzero" d="M 39.351562 92 L 430.53125 92 L 430.53125 94 L 39.351562 94 Z M 39.351562 92 "/>
</clipPath>
<clipPath id="clip-5">
<path clip-rule="nonzero" d="M 39.351562 59 L 430.53125 59 L 430.53125 61 L 39.351562 61 Z M 39.351562 59 "/>
</clipPath>
<clipPath id="clip-6">
<path clip-rule="nonzero" d="M 68 184 L 105 184 L 105 191.578125 L 68 191.578125 Z M 68 184 "/>
</clipPath>
<clipPath id="clip-7">
<path clip-rule="nonzero" d="M 198 186 L 235 186 L 235 191.578125 L 198 191.578125 Z M 198 186 "/>
</clipPath>
<clipPath id="clip-8">
<path clip-rule="nonzero" d="M 328 185 L 366 185 L 366 191.578125 L 328 191.578125 Z M 328 185 "/>
</clipPath>
<clipPath id="clip-9">
<path clip-rule="nonzero" d="M 104 167 L 142 167 L 142 191.578125 L 104 191.578125 Z M 104 167 "/>
</clipPath>
<clipPath id="clip-10">
<path clip-rule="nonzero" d="M 234 127 L 272 127 L 272 191.578125 L 234 191.578125 Z M 234 127 "/>
</clipPath>
<clipPath id="clip-11">
<path clip-rule="nonzero" d="M 365 50 L 402 50 L 402 191.578125 L 365 191.578125 Z M 365 50 "/>
</clipPath>
</defs>
<g clip-path="url(#clip-0)">
<path fill-rule="nonzero" fill="rgb(100%, 100%, 100%)" fill-opacity="1" d="M 0.492188 227.554688 L 437.707031 227.554688 L 437.707031 0 L 0.492188 0 Z M 0.492188 227.554688 "/>
</g>
<path fill-rule="nonzero" fill="rgb(100%, 100%, 100%)" fill-opacity="1" d="M 39.351562 191.578125 L 430.53125 191.578125 L 430.53125 30.75 L 39.351562 30.75 Z M 39.351562 191.578125 "/>
<path fill="none" stroke-width="0.8" stroke-linecap="butt" stroke-linejoin="round" stroke="rgb(0%, 0%, 0%)" stroke-opacity="1" stroke-miterlimit="10" d="M 104.383506 36.092392 L 104.383506 33.09073 " transform="matrix(0.996843, 0, 0, -0.996843, 0.492859, 227.55659)"/>
<g fill="rgb(0%, 0%, 0%)" fill-opacity="1">
<use xlink:href="#glyph-0-0" x="98.395348" y="204.881516"/>
<use xlink:href="#glyph-0-1" x="104.10128" y="204.881516"/>
</g>
<path fill="none" stroke-width="0.8" stroke-linecap="butt" stroke-linejoin="round" stroke="rgb(0%, 0%, 0%)" stroke-opacity="1" stroke-miterlimit="10" d="M 235.190935 36.092392 L 235.190935 33.09073 " transform="matrix(0.996843, 0, 0, -0.996843, 0.492859, 227.55659)"/>
<g fill="rgb(0%, 0%, 0%)" fill-opacity="1">
<use xlink:href="#glyph-0-2" x="228.788704" y="204.881516"/>
<use xlink:href="#glyph-0-1" x="234.494636" y="204.881516"/>
</g>
<path fill="none" stroke-width="0.8" stroke-linecap="butt" stroke-linejoin="round" stroke="rgb(0%, 0%, 0%)" stroke-opacity="1" stroke-miterlimit="10" d="M 365.998364 36.092392 L 365.998364 33.09073 " transform="matrix(0.996843, 0, 0, -0.996843, 0.492859, 227.55659)"/>
<g fill="rgb(0%, 0%, 0%)" fill-opacity="1">
<use xlink:href="#glyph-0-3" x="359.18206" y="204.881516"/>
<use xlink:href="#glyph-0-1" x="364.887992" y="204.881516"/>
</g>
<g fill="rgb(0%, 0%, 0%)" fill-opacity="1">
<use xlink:href="#glyph-1-0" x="207.777113" y="218.307752"/>
<use xlink:href="#glyph-1-1" x="217.98479" y="218.307752"/>
<use xlink:href="#glyph-1-2" x="223.985787" y="218.307752"/>
<use xlink:href="#glyph-1-3" x="230.365586" y="218.307752"/>
<use xlink:href="#glyph-1-4" x="236.266899" y="218.307752"/>
<use xlink:href="#glyph-1-5" x="239.456798" y="218.307752"/>
<use xlink:href="#glyph-1-6" x="242.62676" y="218.307752"/>
<use xlink:href="#glyph-1-7" x="247.740567" y="218.307752"/>
<use xlink:href="#glyph-1-8" x="250.930466" y="218.307752"/>
<use xlink:href="#glyph-1-3" x="256.183831" y="218.307752"/>
</g>
<g clip-path="url(#clip-1)">
<path fill="none" stroke-width="0.6" stroke-linecap="square" stroke-linejoin="round" stroke="rgb(69.018555%, 69.018555%, 69.018555%)" stroke-opacity="0.25" stroke-miterlimit="10" d="M 38.981751 36.092392 L 431.400119 36.092392 " transform="matrix(0.996843, 0, 0, -0.996843, 0.492859, 227.55659)"/>
</g>
<path fill="none" stroke-width="0.8" stroke-linecap="butt" stroke-linejoin="round" stroke="rgb(0%, 0%, 0%)" stroke-opacity="1" stroke-miterlimit="10" d="M 38.981751 36.092392 L 35.980089 36.092392 " transform="matrix(0.996843, 0, 0, -0.996843, 0.492859, 227.55659)"/>
<g fill="rgb(0%, 0%, 0%)" fill-opacity="1">
<use xlink:href="#glyph-0-4" x="27.155306" y="194.99096"/>
</g>
<g clip-path="url(#clip-2)">
<path fill="none" stroke-width="0.6" stroke-linecap="square" stroke-linejoin="round" stroke="rgb(69.018555%, 69.018555%, 69.018555%)" stroke-opacity="0.25" stroke-miterlimit="10" d="M 38.981751 69.18905 L 431.400119 69.18905 " transform="matrix(0.996843, 0, 0, -0.996843, 0.492859, 227.55659)"/>
</g>
<path fill="none" stroke-width="0.8" stroke-linecap="butt" stroke-linejoin="round" stroke="rgb(0%, 0%, 0%)" stroke-opacity="1" stroke-miterlimit="10" d="M 38.981751 69.18905 L 35.980089 69.18905 " transform="matrix(0.996843, 0, 0, -0.996843, 0.492859, 227.55659)"/>
<g fill="rgb(0%, 0%, 0%)" fill-opacity="1">
<use xlink:href="#glyph-0-5" x="27.155306" y="161.998735"/>
</g>
<g clip-path="url(#clip-3)">
<path fill="none" stroke-width="0.6" stroke-linecap="square" stroke-linejoin="round" stroke="rgb(69.018555%, 69.018555%, 69.018555%)" stroke-opacity="0.25" stroke-miterlimit="10" d="M 38.981751 102.285708 L 431.400119 102.285708 " transform="matrix(0.996843, 0, 0, -0.996843, 0.492859, 227.55659)"/>
</g>
<path fill="none" stroke-width="0.8" stroke-linecap="butt" stroke-linejoin="round" stroke="rgb(0%, 0%, 0%)" stroke-opacity="1" stroke-miterlimit="10" d="M 38.981751 102.285708 L 35.980089 102.285708 " transform="matrix(0.996843, 0, 0, -0.996843, 0.492859, 227.55659)"/>
<g fill="rgb(0%, 0%, 0%)" fill-opacity="1">
<use xlink:href="#glyph-0-0" x="21.439032" y="129.006511"/>
<use xlink:href="#glyph-0-4" x="27.144964" y="129.006511"/>
</g>
<g clip-path="url(#clip-4)">
<path fill="none" stroke-width="0.6" stroke-linecap="square" stroke-linejoin="round" stroke="rgb(69.018555%, 69.018555%, 69.018555%)" stroke-opacity="0.25" stroke-miterlimit="10" d="M 38.981751 135.382366 L 431.400119 135.382366 " transform="matrix(0.996843, 0, 0, -0.996843, 0.492859, 227.55659)"/>
</g>
<path fill="none" stroke-width="0.8" stroke-linecap="butt" stroke-linejoin="round" stroke="rgb(0%, 0%, 0%)" stroke-opacity="1" stroke-miterlimit="10" d="M 38.981751 135.382366 L 35.980089 135.382366 " transform="matrix(0.996843, 0, 0, -0.996843, 0.492859, 227.55659)"/>
<g fill="rgb(0%, 0%, 0%)" fill-opacity="1">
<use xlink:href="#glyph-0-0" x="21.439032" y="96.014286"/>
<use xlink:href="#glyph-0-5" x="27.144964" y="96.014286"/>
</g>
<g clip-path="url(#clip-5)">
<path fill="none" stroke-width="0.6" stroke-linecap="square" stroke-linejoin="round" stroke="rgb(69.018555%, 69.018555%, 69.018555%)" stroke-opacity="0.25" stroke-miterlimit="10" d="M 38.981751 168.479024 L 431.400119 168.479024 " transform="matrix(0.996843, 0, 0, -0.996843, 0.492859, 227.55659)"/>
</g>
<path fill="none" stroke-width="0.8" stroke-linecap="butt" stroke-linejoin="round" stroke="rgb(0%, 0%, 0%)" stroke-opacity="1" stroke-miterlimit="10" d="M 38.981751 168.479024 L 35.980089 168.479024 " transform="matrix(0.996843, 0, 0, -0.996843, 0.492859, 227.55659)"/>
<g fill="rgb(0%, 0%, 0%)" fill-opacity="1">
<use xlink:href="#glyph-0-6" x="21.439032" y="63.022062"/>
<use xlink:href="#glyph-0-4" x="27.144964" y="63.022062"/>
</g>
<g fill="rgb(0%, 0%, 0%)" fill-opacity="1">
<use xlink:href="#glyph-2-0" x="15.239912" y="173.194188"/>
</g>
<g fill="rgb(0%, 0%, 0%)" fill-opacity="1">
<use xlink:href="#glyph-2-1" x="15.239912" y="166.92155"/>
<use xlink:href="#glyph-2-2" x="15.239912" y="161.020237"/>
<use xlink:href="#glyph-2-3" x="15.239912" y="155.07905"/>
<use xlink:href="#glyph-2-4" x="15.239912" y="149.038178"/>
<use xlink:href="#glyph-2-5" x="15.239912" y="145.868216"/>
<use xlink:href="#glyph-2-0" x="15.239912" y="137.903437"/>
</g>
<g fill="rgb(0%, 0%, 0%)" fill-opacity="1">
<use xlink:href="#glyph-2-6" x="15.239912" y="131.366013"/>
<use xlink:href="#glyph-2-4" x="15.239912" y="122.962622"/>
<use xlink:href="#glyph-2-7" x="15.239912" y="119.79266"/>
<use xlink:href="#glyph-2-1" x="15.239912" y="110.342584"/>
<use xlink:href="#glyph-2-7" x="15.239912" y="104.441271"/>
<use xlink:href="#glyph-2-8" x="15.239912" y="94.991195"/>
<use xlink:href="#glyph-2-9" x="15.239912" y="88.990197"/>
<use xlink:href="#glyph-2-10" x="15.239912" y="84.225285"/>
<use xlink:href="#glyph-2-4" x="15.239912" y="78.593119"/>
<use xlink:href="#glyph-2-11" x="15.239912" y="75.423157"/>
<use xlink:href="#glyph-2-5" x="15.239912" y="71.535468"/>
<use xlink:href="#glyph-2-12" x="15.239912" y="63.570688"/>
<use xlink:href="#glyph-2-13" x="15.239912" y="60.380789"/>
<use xlink:href="#glyph-2-14" x="15.239912" y="53.05399"/>
</g>
<g clip-path="url(#clip-6)">
<path fill-rule="nonzero" fill="rgb(29.803467%, 47.058105%, 65.881348%)" fill-opacity="1" d="M 68.039062 191.578125 L 104.546875 191.578125 L 104.546875 184.375 L 68.039062 184.375 Z M 68.039062 191.578125 "/>
</g>
<g clip-path="url(#clip-7)">
<path fill-rule="nonzero" fill="rgb(29.803467%, 47.058105%, 65.881348%)" fill-opacity="1" d="M 198.429688 191.578125 L 234.941406 191.578125 L 234.941406 186.257812 L 198.429688 186.257812 Z M 198.429688 191.578125 "/>
</g>
<g clip-path="url(#clip-8)">
<path fill-rule="nonzero" fill="rgb(29.803467%, 47.058105%, 65.881348%)" fill-opacity="1" d="M 328.824219 191.578125 L 365.335938 191.578125 L 365.335938 185.820312 L 328.824219 185.820312 Z M 328.824219 191.578125 "/>
</g>
<g clip-path="url(#clip-9)">
<path fill-rule="nonzero" fill="rgb(96.076965%, 52.156067%, 9.411621%)" fill-opacity="1" d="M 104.546875 191.578125 L 141.058594 191.578125 L 141.058594 167.929688 L 104.546875 167.929688 Z M 104.546875 191.578125 "/>
</g>
<g clip-path="url(#clip-10)">
<path fill-rule="nonzero" fill="rgb(96.076965%, 52.156067%, 9.411621%)" fill-opacity="1" d="M 234.941406 191.578125 L 271.453125 191.578125 L 271.453125 127.4375 L 234.941406 127.4375 Z M 234.941406 191.578125 "/>
</g>
<g clip-path="url(#clip-11)">
<path fill-rule="nonzero" fill="rgb(96.076965%, 52.156067%, 9.411621%)" fill-opacity="1" d="M 365.335938 191.578125 L 401.84375 191.578125 L 401.84375 50.5 L 365.335938 50.5 Z M 365.335938 191.578125 "/>
</g>
<path fill="none" stroke-width="0.8" stroke-linecap="square" stroke-linejoin="miter" stroke="rgb(0%, 0%, 0%)" stroke-opacity="1" stroke-miterlimit="10" d="M 38.981751 36.092392 L 38.981751 197.429783 " transform="matrix(0.996843, 0, 0, -0.996843, 0.492859, 227.55659)"/>
<path fill="none" stroke-width="0.8" stroke-linecap="square" stroke-linejoin="miter" stroke="rgb(0%, 0%, 0%)" stroke-opacity="1" stroke-miterlimit="10" d="M 38.981751 36.092392 L 431.400119 36.092392 " transform="matrix(0.996843, 0, 0, -0.996843, 0.492859, 227.55659)"/>
<g fill="rgb(0%, 0%, 0%)" fill-opacity="1">
<use xlink:href="#glyph-3-0" x="79.945582" y="180.71544"/>
<use xlink:href="#glyph-3-1" x="85.017522" y="180.71544"/>
<use xlink:href="#glyph-3-0" x="87.553491" y="180.71544"/>
</g>
<g fill="rgb(0%, 0%, 0%)" fill-opacity="1">
<use xlink:href="#glyph-3-2" x="210.338938" y="182.597028"/>
<use xlink:href="#glyph-3-1" x="215.410878" y="182.597028"/>
<use xlink:href="#glyph-3-3" x="217.946847" y="182.597028"/>
</g>
<g fill="rgb(0%, 0%, 0%)" fill-opacity="1">
<use xlink:href="#glyph-3-2" x="340.732294" y="182.15885"/>
<use xlink:href="#glyph-3-1" x="345.804233" y="182.15885"/>
<use xlink:href="#glyph-3-4" x="348.340203" y="182.15885"/>
</g>
<g fill="rgb(0%, 0%, 0%)" fill-opacity="1">
<use xlink:href="#glyph-3-5" x="116.455722" y="164.270878"/>
<use xlink:href="#glyph-3-1" x="121.527661" y="164.270878"/>
<use xlink:href="#glyph-3-6" x="124.063631" y="164.270878"/>
</g>
<g fill="rgb(0%, 0%, 0%)" fill-opacity="1">
<use xlink:href="#glyph-3-4" x="246.849078" y="123.778078"/>
<use xlink:href="#glyph-3-1" x="251.921017" y="123.778078"/>
<use xlink:href="#glyph-3-7" x="254.456987" y="123.778078"/>
</g>
<g fill="rgb(0%, 0%, 0%)" fill-opacity="1">
<use xlink:href="#glyph-3-8" x="374.703598" y="46.839179"/>
<use xlink:href="#glyph-3-0" x="379.775537" y="46.839179"/>
<use xlink:href="#glyph-3-1" x="384.847477" y="46.839179"/>
<use xlink:href="#glyph-3-9" x="387.383447" y="46.839179"/>
</g>
<path fill-rule="nonzero" fill="rgb(29.803467%, 47.058105%, 65.881348%)" fill-opacity="1" d="M 138.835938 17.589844 L 149.601562 17.589844 L 149.601562 11.308594 L 138.835938 11.308594 Z M 138.835938 17.589844 "/>
<g fill="rgb(0%, 0%, 0%)" fill-opacity="1">
<use xlink:href="#glyph-0-7" x="156.779224" y="17.588057"/>
<use xlink:href="#glyph-0-8" x="163.97444" y="17.588057"/>
<use xlink:href="#glyph-0-9" x="166.845349" y="17.588057"/>
<use xlink:href="#glyph-0-10" x="171.13377" y="17.588057"/>
<use xlink:href="#glyph-0-11" x="176.444952" y="17.588057"/>
<use xlink:href="#glyph-0-12" x="181.469043" y="17.588057"/>
<use xlink:href="#glyph-0-13" x="185.075622" y="17.588057"/>
<use xlink:href="#glyph-0-10" x="187.928588" y="17.588057"/>
<use xlink:href="#glyph-0-14" x="193.23977" y="17.588057"/>
<use xlink:href="#glyph-0-8" x="198.308719" y="17.588057"/>
<use xlink:href="#glyph-0-11" x="201.179629" y="17.588057"/>
<use xlink:href="#glyph-0-12" x="206.20372" y="17.588057"/>
</g>
<path fill-rule="nonzero" fill="rgb(96.076965%, 52.156067%, 9.411621%)" fill-opacity="1" d="M 222.375 17.589844 L 233.140625 17.589844 L 233.140625 11.308594 L 222.375 11.308594 Z M 222.375 17.589844 "/>
<g fill="rgb(0%, 0%, 0%)" fill-opacity="1">
<use xlink:href="#glyph-0-15" x="240.317821" y="17.588057"/>
</g>
<g fill="rgb(0%, 0%, 0%)" fill-opacity="1">
<use xlink:href="#glyph-0-16" x="248.761833" y="17.588057"/>
<use xlink:href="#glyph-0-17" x="254.108902" y="17.588057"/>
<use xlink:href="#glyph-0-10" x="259.545686" y="17.588057"/>
<use xlink:href="#glyph-0-18" x="264.856868" y="17.588057"/>
<use xlink:href="#glyph-0-19" x="267.889266" y="17.588057"/>
<use xlink:href="#glyph-0-20" x="273.666971" y="17.588057"/>
<use xlink:href="#glyph-0-13" x="279.408789" y="17.588057"/>
<use xlink:href="#glyph-0-21" x="282.261755" y="17.588057"/>
<use xlink:href="#glyph-0-13" x="289.779948" y="17.588057"/>
<use xlink:href="#glyph-0-22" x="292.632914" y="17.588057"/>
<use xlink:href="#glyph-0-6" x="298.590051" y="17.588057"/>
<use xlink:href="#glyph-0-13" x="304.295983" y="17.588057"/>
<use xlink:href="#glyph-0-23" x="307.148949" y="17.588057"/>
<use xlink:href="#glyph-0-24" x="311.751375" y="17.588057"/>
<use xlink:href="#glyph-0-10" x="314.622284" y="17.588057"/>
<use xlink:href="#glyph-0-10" x="319.933466" y="17.588057"/>
<use xlink:href="#glyph-0-20" x="325.244648" y="17.588057"/>
</g>
</svg>
